<svg width="20" height="13" viewBox="0 0 20 13" fill="none" xmlns="http://www.w3.org/2000/svg">
<path d="M9.01639 6.94449L7.65808 6.03963C7.48634 5.92322 7.27182 5.86501 7.01452 5.86501C6.75722 5.86501 6.53458 5.92851 6.34661 6.05551C6.17486 6.17192 6.08899 6.32009 6.08899 6.5C6.08899 6.67991 6.17486 6.82808 6.34661 6.94449L8.36066 8.30972C8.54801 8.43672 8.76659 8.50022 9.01639 8.50022C9.2662 8.50022 9.48478 8.43672 9.67213 8.30972L13.6534 5.61101C13.8408 5.48401 13.9304 5.33585 13.9222 5.16652C13.9141 4.99719 13.8245 4.84902 13.6534 4.72203C13.466 4.59503 13.2437 4.52899 12.9864 4.52391C12.7291 4.51883 12.5065 4.57958 12.3185 4.70615L9.01639 6.94449ZM6.39344 12.6912L5.03513 11.1354L2.45902 10.7544C2.22482 10.7227 2.03747 10.6408 1.89696 10.5087C1.75644 10.3766 1.7018 10.231 1.73302 10.0718L1.99063 8.27797L0.234192 6.91274C0.078064 6.79633 0 6.65875 0 6.5C0 6.34125 0.078064 6.20367 0.234192 6.08726L1.99063 4.72203L1.73302 2.92818C1.7018 2.76943 1.75644 2.6238 1.89696 2.4913C2.03747 2.3588 2.22482 2.27689 2.45902 2.24556L5.03513 1.86457L6.39344 0.308839C6.51835 0.171258 6.69009 0.0785489 6.90867 0.0307129C7.12724 -0.0171231 7.34582 -0.00907989 7.5644 0.0548425L10 0.753332L12.4356 0.0548425C12.6542 -0.00865657 12.8728 -0.0166998 13.0913 0.0307129C13.3099 0.0781255 13.4817 0.170834 13.6066 0.308839L14.9649 1.86457L17.541 2.24556C17.7752 2.27731 17.9625 2.35944 18.103 2.49194C18.2436 2.62444 18.2982 2.76985 18.267 2.92818L18.0094 4.72203L19.7658 6.08726C19.9219 6.20367 20 6.34125 20 6.5C20 6.65875 19.9219 6.79633 19.7658 6.91274L18.0094 8.27797L18.267 10.0718C18.2982 10.2306 18.2436 10.3762 18.103 10.5087C17.9625 10.6412 17.7752 10.7231 17.541 10.7544L14.9649 11.1354L13.6066 12.6912C13.4817 12.8287 13.3099 12.9215 13.0913 12.9693C12.8728 13.0171 12.6542 13.0091 12.4356 12.9452L10 12.2467L7.5644 12.9452C7.34582 13.0087 7.12724 13.0167 6.90867 12.9693C6.69009 12.9219 6.51835 12.8292 6.39344 12.6912Z" fill="#2686CC"/>
</svg>
